<svg id="Слой_1" data-name="Слой 1" xmlns="http://www.w3.org/2000/svg" xmlns:xlink="http://www.w3.org/1999/xlink" viewBox="0 0 1500 1500"><defs><style>.cls-1{opacity:0.5;fill:url(#Безымянный_градиент_11);}.cls-2{fill:#fff;}</style><linearGradient id="Безымянный_градиент_11" y1="750" x2="1500" y2="750" gradientUnits="userSpaceOnUse"><stop offset="0" stop-color="#21d4fd"/><stop offset="1" stop-color="#b721ff"/></linearGradient></defs><title>avatar</title><rect class="cls-1" width="1500" height="1500" transform="translate(1500 0) rotate(90)"/><path class="cls-2" d="M715.38,137.31c-46.66,3.53-74.31,10.21-104.83,25.42-18.74,9.37-29.5,17-43.6,31.08-12.43,12.34-19.11,20.78-27.55,35-25.79,43.23-38.78,107.8-38.78,192.87,0,72.08,17.17,133.12,52.6,187,10.49,16.05,20.6,28.21,35.9,43.42,34.61,34.42,72.73,54.73,118.1,62.71,17.16,3.06,47.4,3.06,64.56,0,43.7-7.7,81.64-27.37,115.41-59.83,48.7-46.85,79.87-112.35,88.87-187,3.24-26.54,2.78-76.82-1-115.5-5.85-59.93-21.34-106.5-46.39-140.36-7.6-10.11-26.16-28.29-36.55-35.71-10.57-7.52-34.88-19.76-48.14-24.31-18.28-6.21-37.57-10.39-60.4-13C771.69,137.68,726,136.48,715.38,137.31Z" transform="translate(0 0)"/><path class="cls-2" d="M595.25,742.16c-77.28,15.21-127.1,30.05-166.34,49.63-19.57,9.74-32.93,18.09-47.21,29.41-33.59,26.71-57,63.63-70.79,111.5-14.19,49.26-20.41,111.32-22.35,224l-.56,33.39,2.88,4.27c20.59,30.52,67.62,61.78,125.32,83.21,66.8,24.77,142.77,38.5,248.62,44.9,25.33,1.49,124.22,1.49,149.36,0,105.75-6.4,182-20.22,248.62-44.9,57.6-21.43,104.82-52.78,125.32-83.21l2.88-4.27-.56-32.47c-1.39-76.72-4.36-125.42-9.92-164.66-20.32-142.77-81.27-201.77-248.62-240.64-15.86-3.62-37-8.07-51.76-10.85l-9.65-1.76-7.79,7.42c-22.18,21.06-55.57,35.53-94,40.91-11.5,1.67-46.85,1.67-58.44,0-38-5.2-72.55-20.23-94.25-41.1-4.18-4-7.89-7.23-8.35-7.14S601.65,741,595.25,742.16Z" transform="translate(0 0)"/></svg>