<svg id="Слой_1" data-name="Слой 1" xmlns="http://www.w3.org/2000/svg" viewBox="0 0 1145.15 1408.98"><defs><style>.cls-1{fill:none;stroke:#fff;stroke-miterlimit:10;stroke-width:30px;}</style></defs><title>home</title><path class="cls-1" d="M1295,416v955a50,50,0,0,1-50,50H269a50,50,0,0,1-50-50V119a50,50,0,0,1,50-50H951.55" transform="translate(-204 -27.02)"/><path class="cls-1" d="M1003.46,27.08l-1.17,293.45a50,50,0,0,0,49.8,50.2l297,1.19" transform="translate(-204 -27.02)"/><path class="cls-1" d="M965.26,773V999a50,50,0,0,1-50,50H571.15a50,50,0,0,1-50-50V773" transform="translate(-204 -27.02)"/><path class="cls-1" d="M965.26,783h59.25c25.18,0,32.38-37,9.32-47.9L749.71,509.39a21.73,21.73,0,0,0-18.64,0L447,735.1C423.89,746,431.1,783,456.27,783h64.88" transform="translate(-204 -27.02)"/></svg>