<svg id="Слой_1" data-name="Слой 1" xmlns="http://www.w3.org/2000/svg" xmlns:xlink="http://www.w3.org/1999/xlink" viewBox="0 0 443 443"><defs><style>.cls-1,.cls-2,.cls-3,.cls-4{fill:none;stroke-miterlimit:10;stroke-width:20px;}.cls-1{stroke:url(#Безымянный_градиент_7);}.cls-2{stroke:url(#Безымянный_градиент_7-2);}.cls-3{stroke:url(#Безымянный_градиент_7-3);}.cls-4{stroke:url(#Безымянный_градиент_7-4);}</style><linearGradient id="Безымянный_градиент_7" x1="735" y1="229" x2="735" y2="229" gradientUnits="userSpaceOnUse"><stop offset="0" stop-color="#21d4fd"/><stop offset="1" stop-color="#b721ff"/></linearGradient><linearGradient id="Безымянный_градиент_7-2" y1="248.67" y2="248.67" xlink:href="#Безымянный_градиент_7"/><linearGradient id="Безымянный_градиент_7-3" x1="725" y1="268.5" x2="825" y2="268.5" xlink:href="#Безымянный_градиент_7"/><linearGradient id="Безымянный_градиент_7-4" x1="553" y1="269" x2="996" y2="269" xlink:href="#Безымянный_градиент_7"/></defs><title>plus</title><path class="cls-1" d="M735,229" transform="translate(-553 -47)"/><path class="cls-2" d="M735,248.67" transform="translate(-553 -47)"/><path class="cls-3" d="M735,229V69a12,12,0,0,1,12-12h56a12,12,0,0,1,12,12V468a12,12,0,0,1-12,12H747a12,12,0,0,1-12-12V309" transform="translate(-553 -47)"/><path class="cls-4" d="M805,229H974a12,12,0,0,1,12,12v56a12,12,0,0,1-12,12H575a12,12,0,0,1-12-12V241a12,12,0,0,1,12-12H745" transform="translate(-553 -47)"/></svg>