<svg id="Слой_1" data-name="Слой 1" xmlns="http://www.w3.org/2000/svg" viewBox="0 0 1273.06 1483.08"><defs><style>.cls-1{fill:none;stroke:#fff;stroke-miterlimit:10;stroke-width:30px;}</style></defs><title>set</title><path class="cls-1" d="M1178.55,549.85a302.91,302.91,0,0,0,17.34-64.63l64.51-1.13c27.41.11,49.7-16.82,49.78-37.82l.16-38.79c.09-21-22.06-38.12-49.46-38.23L1192.54,374A303.62,303.62,0,0,0,1154,278.38l44.1-32.27c22.47-15.7,30.92-42.38,18.89-59.6l-22.22-31.79c-12-17.21-40-18.44-62.46-2.74l-53.51,43.6a303.78,303.78,0,0,0-126.69-56.67L950.93,73.4C951,46,934.11,23.7,913.11,23.62l-38.79-.16c-21-.09-38.12,22.06-38.23,49.47l4.53,65.16c-52.7,14.52-115.17,46-115.17,46L658.69,131c-22-16.37-50-16-62.52.87L573,162.94c-12.54,16.84-4.89,43.77,17.09,60.13l55.39,38.43c-10.92,15.29-21.22,35.58-29.66,54.42m151.9,55.6a143.13,143.13,0,0,1,269.49,67.19c0,9.88-3.24,34.5-5.14,43.82" transform="translate(-52.28 -8.46)"/><path class="cls-1" d="M67.28,980.89c-.11,26.5,27.84,48.1,62.42,48.24l89.69-6.24a382.44,382.44,0,0,0,46.14,136.85L207,1202.57c-28.35,19.81-39,53.48-23.84,75.2l28,40.11c15.18,21.72,50.47,23.27,78.81,3.45l66-53.75c60.66,50.07,78.79,58.74,167.81,80.23l3.94,65.72c-.14,34.58,21.22,62.7,47.72,62.81l48.94.2c26.5.11,52.51-27.83,52.65-62.41l3.49-58.91c34.7-10.94,103.73-44.09,133.41-63.82l73.61,56.46c27.74,20.65,63.05,20.16,78.87-1.09l29.23-39.26c15.83-21.25,6.17-55.22-21.57-75.87l-57.7-40A383.07,383.07,0,0,0,981.79,1029l81.4-1.43c34.58.14,62.7-21.22,62.81-47.72l.2-48.94c.11-26.5-27.84-48.1-62.42-48.24l-86.22,6A382.92,382.92,0,0,0,928.9,768.06l55.65-40.72c28.34-19.81,39-53.48,23.83-75.2l-28-40.11c-15.18-21.72-50.46-23.27-78.81-3.46l-67.51,55a383.5,383.5,0,0,0-159.86-71.5l-1.45-82.66c.15-34.58-21.22-62.7-47.72-62.81l-48.94-.2c-26.5-.11-48.09,27.83-48.23,62.41L533.54,591c-66.5,18.32-145.32,58.11-145.32,58.11L304,582.05c-27.73-20.65-63.05-20.16-78.87,1.09l-29.23,39.25c-15.82,21.26-6.17,55.23,21.57,75.88l69.88,48.49c-34.45,48.25-64,135.94-64,135.94l-93,1.53c-34.58-.14-62.7,21.23-62.81,47.73Z" transform="translate(-52.28 -8.46)"/><circle class="cls-1" cx="548.75" cy="961.89" r="180.56"/></svg>