<svg id="Слой_1" data-name="Слой 1" xmlns="http://www.w3.org/2000/svg" viewBox="0 0 1573.35 1874"><defs><style>.cls-1{fill:none;stroke:#fff;stroke-miterlimit:10;stroke-width:30px;}</style></defs><title>sms</title><path class="cls-1" d="M1293.22,827l285,3.77c31.49,0,57.26,31.38,57.26,69.74v917.76c0,38.36-25.77,69.74-57.26,69.74H172.19c-31.49,0-57.25-31.38-57.25-69.74V1224.08" transform="translate(-85.11 -29)"/><path class="cls-1" d="M114.94,889.38c0-32.55,25.76-59.19,57.25-59.19H494.55" transform="translate(-85.11 -29)"/><path class="cls-1" d="M494.55,822.78" transform="translate(-85.11 -29)"/><path class="cls-1" d="M539.33,830.19l-385.81,1.12c-53.86,0-73.75-70.77-27.77-98.83L844,51.8a53.35,53.35,0,0,1,55.55,0l718.27,680.68c46,28.06,26.09,98.83-27.78,98.83L1293.22,827" transform="translate(-85.11 -29)"/><path class="cls-1" d="M539.33,1257.78V561.5a35,35,0,0,1,35-35h477.9" transform="translate(-85.11 -29)"/><path class="cls-1" d="M1292.76,769.46l.46,392.35" transform="translate(-85.11 -29)"/><path class="cls-1" d="M1088.65,497.15l-.84,205.51a35,35,0,0,0,34.87,35.15l208,.84" transform="translate(-85.11 -29)"/><path class="cls-1" d="M878.81,1262.79l732.37,526.5c39.43,28.35,19.37,90.6-29.19,90.6H167.27c-48.57,0-68.62-62.25-29.19-90.6l682.36-526.5A50,50,0,0,1,878.81,1262.79Z" transform="translate(-85.11 -29)"/><line class="cls-1" x1="26.63" y1="851.3" x2="588.89" y2="1347"/><path class="cls-1" d="M1129,1339.89" transform="translate(-85.11 -29)"/><path class="cls-1" d="M1248,1235.09" transform="translate(-85.11 -29)"/><path class="cls-1" d="M1248,1235.09" transform="translate(-85.11 -29)"/><path class="cls-1" d="M1630.17,898.43" transform="translate(-85.11 -29)"/><line class="cls-1" x1="1545.06" y1="835.31" x2="958.89" y2="1352"/><path class="cls-1" d="M702.25,1145.82s37-132.49,108.62-187.18c63.33-48.35,128.64-40.83,128.64-40.83s-87,41.6-126.33,127.87c-24.64,54.1-33.13,116.32-33.13,116.32" transform="translate(-85.11 -29)"/><polyline class="cls-1" points="803.55 851.07 785.07 801 1043.89 848.76 854.39 1010.52 836.68 941.97"/></svg>